# xmcd CD database file
#
# Track frame offsets:
#	150
#	17931
#	32634
#	48371
#	64830
#	81147
#	91973
#	107165
#	122044
#	138088
#	156844
#	170307
#	184659
#
# Disc length: 2732 seconds
#
# Revision: 0
# Processed by: cddbd v1.4PL0 Copyright (c) Steve Scherf et al.
# Submitted via: CDex 1.50beta9
#
DISCID=a30aaa0d
DTITLE=MICHAEL ENGLISH - BOTH SIDES NOW
DYEAR=1900
DGENRE=Country
TTITLE0=Both Side New
TTITLE1=You Are The People
TTITLE2=Can't Take My Eyes Off You
TTITLE3=It Was Almost Like A Song
TTITLE4=The Mist On The Moor
TTITLE5=Breaking Up Is Hard To Do
TTITLE6=Hide With Me
TTITLE7=Amy
TTITLE8=Home Lovin' Man
TTITLE9=Just Outside Your Heart
TTITLE10=Believe It Or Not
TTITLE11=Let It Be Me
TTITLE12=A Whisper Away
EXTD=
EXTT0=
EXTT1=
EXTT2=
EXTT3=
EXTT4=
EXTT5=
EXTT6=
EXTT7=
EXTT8=
EXTT9=
EXTT10=
EXTT11=
EXTT12=
PLAYORDER=
